<?xml version="1.0" encoding="UTF-8"?> <svg xmlns="http://www.w3.org/2000/svg" xmlns:xlink="http://www.w3.org/1999/xlink" id="Layer_2" data-name="Layer 2" viewBox="0 0 296 296"> <defs> <style> .cls-1 { fill: #fff; } .cls-2 { fill: url(#linear-gradient); } </style> <linearGradient id="linear-gradient" x1="62.47" y1="259.28" x2="234.65" y2="87.1" gradientUnits="userSpaceOnUse"> <stop offset="0" stop-color="#b79d4f"></stop> <stop offset=".29" stop-color="#c4a960"></stop> <stop offset=".51" stop-color="#dcc080"></stop> <stop offset=".67" stop-color="#caaf69"></stop> <stop offset="1" stop-color="#b79d4f"></stop> </linearGradient> </defs> <g id="Layer_1-2" data-name="Layer 1"> <g> <circle class="cls-1" cx="148" cy="148" r="148"></circle> <path class="cls-2" d="m254.49,236.97l-.03-14.29s0-.06,0-.09l-.13-47.86c0-.18-.03-.36-.06-.54.05-.63.12-1.29.19-1.98.35-3.17.78-7.08-.54-10.9-1.61-11.12-19.84-17.84-36.01-21.65l-.14-28.11c0-.59.08-1.24.16-1.94.24-2.15.53-4.8-.37-7.5-1.93-11.88-29.53-17.97-57.99-19.16,1.76-6.8,4.25-12.77,6.77-17.69,6.8-2.02,20.25-2.6,24-13.65,1.99-5.86-1.15-12.21-7-14.2-3.84-1.31-7.89-.41-10.79,2.02-.84-3.69-3.51-6.87-7.34-8.17-5.85-1.98-12.21,1.16-14.19,7.01-3.96,11.67,7.79,20.65,11.38,26.37-2.53,5.11-4.97,11.22-6.68,18.17-2.2-.06-4.4-.09-6.59-.09h-.61c-2.92,0-5.8.07-8.63.17-2.45-5.93-6.02-12.19-11.19-17.12,1.06-6.82,7.43-19.56-.9-28.27-4.28-4.47-11.36-4.63-15.83-.35-2.93,2.8-4,6.81-3.19,10.5-3.66-.96-7.71-.07-10.64,2.74-4.46,4.27-4.61,11.36-.33,15.82,8.33,8.7,21.31,2.9,28.18,2.13,4.41,4.18,7.6,9.52,9.88,14.72-23.71,1.24-43.21,5.76-51.35,12.09-4.8,3.3-6.91,8.29-6.64,15.71.03.94.13,3.53,1.81,5.36l.07,23.76c-13.28,3.2-23.35,7.28-29.09,11.75-6.83,4.68-9.82,11.86-9.42,22.6.08,2.31.5,5.5,2.8,7.5l.16,53.93c-.03.19-.05.38-.05.58,0,.41.03.81.05,1.18,0,.45.09.88.25,1.28.27,1.09.72,2.15,1.34,3.18,9.32,15.39,56.8,23.36,102.63,23.35h.94c48.74-.12,99.61-9.27,104.67-26.56.29-.54.45-1.15.45-1.78h0s0-.02,0-.02Zm-203.02-53.9c1.46-.35,2.99-.88,4.61-1.44,4.59-1.6,10.31-3.58,16.71-2.44,1.23.23,3.7,5.31,4.88,7.76,3.05,6.29,6.85,14.11,14.3,14.88,4.77.49,10.04-3.12,15.6-6.93,4.87-3.34,10.95-7.53,14.2-6.64,7.53,1.97,9.89,5.37,12.89,9.69,1.45,2.09,3.1,4.46,5.42,6.71,4.5,4.36,8.71,6.5,12.82,6.5.54,0,1.09-.04,1.63-.11,7.17-.99,11.43-8.33,14.85-14.21,1.36-2.34,3.63-6.26,4.58-6.68,3.94-.22,8.38,1.8,12.65,3.75,4.71,2.14,9.57,4.36,14.37,3.83,7.22-.77,12.14-7.98,16.48-14.34,2.14-3.13,5.36-7.86,7.03-8.16,6.66-1.17,9.96,1.27,13.14,3.65,2.3,1.72,5.39,4.02,9.27,3.17l.11,38.76c-1.01.68-2.09,1.36-2.84,1.83-.56.35-1,.63-1.25.8-2.41,1.68-4.57,3.01-6.61,4.07-5.42,2.8-10.48,3.96-15.01,3.51-3.27-.34-6.61-1.5-10.14-2.73-7.98-2.77-17.02-5.9-26.05,1.16-1.68,1.31-3.31,2.74-4.94,4.17-3.86,3.39-7.5,6.59-11.87,8.19-6.86,2.5-15.17,1.68-23.38-2.31-2.5-1.22-4.83-2.82-7.3-4.51-2.59-1.78-5.26-3.62-8.26-5.08-7.65-3.73-13.75-2.48-20.92-.44-2.91.82-5.71,1.86-8.42,2.86-1.71.64-3.42,1.27-5.16,1.85-3.56,1.18-7.09,1.64-10.84,1.43-7.68-.48-14.37-4.53-21.46-8.82-2-1.21-3.99-2.41-5.99-3.53-1.67-.93-3.33-1.77-4.97-2.52l-.11-37.64Zm35.74-32.29h0s0-2.47,0-2.47c.85.5,1.7,1.01,2.55,1.53,4.77,2.89,10.17,6.16,16.64,6.56,3.15.18,6.26-.22,9.28-1.22,1.18-.39,2.34-.82,3.5-1.25,1.64-.61,3.29-1.22,4.99-1.7,4.02-1.14,6.23-1.52,9.15-.1,1.52.74,2.98,1.74,4.53,2.81,1.71,1.17,3.47,2.39,5.49,3.37,6.8,3.31,13.84,3.92,19.85,1.74,3.89-1.42,6.92-4.08,9.59-6.43.96-.84,1.91-1.68,2.9-2.46,3.06-2.39,6.03-1.51,11.02.21,2.51.87,5.1,1.77,7.91,2.06,4.15.43,8.55-.55,13.12-2.91.9-.47,1.83-1,2.78-1.6v1.52c0,.05-.01.11-.02.16-.76,4.41-22.59,12.68-61.62,12.78-38.9-.05-60.63-7.98-61.66-12.4,0-.06,0-.12,0-.17h0Zm122.14-10.01c-.43.27-.76.48-.92.59-1.51,1.05-2.85,1.88-4.12,2.53-3.26,1.68-6.26,2.41-8.93,2.12-1.96-.2-4.04-.92-6.24-1.69-5.18-1.8-11.64-4.03-18.03.95-1.1.86-2.16,1.8-3.23,2.73-2.39,2.1-4.65,4.09-7.23,5.03-5.51,2.01-11.16-.03-14.04-1.43-1.53-.74-2.99-1.75-4.54-2.81-1.71-1.17-3.47-2.38-5.49-3.37-5.36-2.61-9.7-1.7-14.42-.37-1.89.53-3.72,1.21-5.55,1.88-1.08.4-2.16.8-3.26,1.17-2.15.7-4.28.99-6.49.86-4.63-.29-8.81-2.82-13.24-5.5-1.3-.79-2.6-1.57-3.9-2.3-.85-.47-1.69-.91-2.53-1.31l-.07-22.41c.69-.21,1.39-.45,2.08-.69,2.89-1.01,6.14-2.15,9.84-1.57.66.63,1.74,2.83,2.46,4.32,2.11,4.35,4.73,9.76,10.27,10.32,3.55.33,7.14-2.09,10.94-4.69,2.45-1.68,6.5-4.54,8.08-4.09,4.38,1.14,5.64,2.96,7.55,5.71.97,1.4,2.08,2.98,3.66,4.52,3.16,3.06,6.17,4.56,9.17,4.56.41,0,.83-.03,1.25-.09,5.26-.73,8.18-5.77,10.53-9.81.71-1.22,1.74-2.98,2.37-3.65,2.12.07,4.63,1.2,7.05,2.3,3.2,1.46,6.5,2.96,9.96,2.58,5.26-.56,8.61-5.48,11.56-9.81,1.18-1.73,2.97-4.35,3.67-4.71,3.72-.67,5.45.62,7.44,2.11,1.25.94,3.09,2.31,5.38,2.43l.11,22.84c-.4.26-.8.51-1.12.71Zm-120.46-39.61c6-4.66,23.74-9.67,49.68-10.77,2.08,6.72,2.69,11.94,2.7,12.06.1.95.91,1.66,1.84,1.66.07,0,.13,0,.2-.01,1.02-.11,1.76-1.03,1.65-2.05-.05-.49-.61-5.38-2.5-11.79,1.98-.05,4-.08,6.07-.09h.66c1.73,0,3.4.02,5.06.05-.58,3.82-.91,7.83-.91,12.03,0,1.03.83,1.86,1.86,1.86s1.86-.83,1.86-1.86c0-4.16.36-8.14.96-11.93,33.58,1.16,51.78,8.76,52.2,13.03.03.33.11.66.23.97.45,1.17.27,2.85.09,4.47-.03.26-.06.52-.08.77-.31-.21-.7-.5-1.02-.74-2.36-1.76-6.28-4.72-13.19-3.47-3.61.64-5.99,4.14-8.51,7.84-1.84,2.7-4.37,6.41-6.21,6.61-1.48.17-3.81-.92-6.09-1.96-3.26-1.48-6.92-3.12-10.99-2.96-3.78.19-5.89,3.83-7.93,7.34-1.38,2.37-3.45,5.95-5.12,6.18-.97.19-2.48-.76-4.22-2.45-1.07-1.03-1.88-2.2-2.73-3.43-2.23-3.2-4.75-6.82-11.78-8.67-.7-.18-1.41-.27-2.12-.27-4.13,0-8.3,2.85-12.04,5.42-1.86,1.27-4.96,3.4-5.98,3.43-1.41-.14-3.17-3.77-4.34-6.17-1.83-3.77-3.72-7.66-7.58-8.35-5.69-1.02-10.6.69-13.84,1.82-.45.16-.98.34-1.47.5-.13-5.69,1.57-7.67,3.61-9.08Zm-33.86,56.58c4.77-3.72,13.47-7.25,24.73-10.1v2.66c-.01.16-.02.32-.02.49,0,.33.03.65.04.73,0,.45.08.88.23,1.27,3.27,12.38,37.33,18,68.3,18h.58c30.78-.08,64.81-5.73,68.68-17.92.26-.51.39-1.09.39-1.67h0s0-3.88,0-3.88c20.42,5.04,28.23,11.26,28.62,15.23.03.33.11.66.23.97.88,2.28.56,5.13.26,7.89-.09.87-.18,1.7-.24,2.5-1.48,1.44-1.93,1.1-4.74-1-3.6-2.69-9.06-6.77-18.89-5.01-4.74.84-8.05,5.69-11.87,11.29-3.43,5.03-7.32,10.73-11.12,11.14-2.82.3-6.54-1.41-10.51-3.21-4.84-2.2-10.32-4.71-16.1-4.4-4.75.24-7.61,5.16-10.64,10.37-2.61,4.49-5.86,10.09-9.44,10.58-2.76.38-5.99-2.16-8.26-4.36-1.8-1.75-3.11-3.63-4.49-5.62-3.25-4.67-6.93-9.97-17.12-12.64-6.53-1.71-13.53,3.07-20.28,7.7-3.62,2.48-8.55,5.92-10.65,5.67-3.33-.34-6-5.85-8.36-10.72-2.73-5.63-5.31-10.95-10.27-11.83-8.33-1.48-15.33.96-20.45,2.74-1.59.55-3.69,1.28-4.74,1.41-.09-.34-.2-.95-.24-1.95-.38-10.27,2.92-13.95,6.38-16.32Zm191.95,78.63c-1.5,8.71-37.14,21.39-97.63,21.53h-1.04c-59.86,0-95.15-12.41-96.69-21.06,0-.02,0-.05-.01-.07v-.03h0c.01-.13.02-.27.02-.4l-.02-7.34c.44.23.88.47,1.32.72,1.93,1.08,3.85,2.24,5.77,3.4,7.55,4.57,15.35,9.29,24.86,9.88,4.64.28,9.23-.32,13.64-1.79,1.82-.6,3.61-1.27,5.4-1.93,2.69-.99,5.23-1.94,7.86-2.68,6.18-1.74,10.32-2.62,15.65-.02,2.5,1.22,4.84,2.82,7.31,4.52,2.59,1.78,5.26,3.61,8.25,5.07,10.06,4.89,20.42,5.82,29.19,2.61,5.67-2.08,10.02-5.89,14.22-9.59,1.52-1.34,3.04-2.67,4.61-3.9,5.56-4.35,10.85-2.83,19.03,0,3.78,1.31,7.68,2.67,11.81,3.1,6.01.6,12.46-.82,19.2-4.3,2.3-1.2,4.7-2.67,7.31-4.48l.02,6.43c-.03.11-.05.22-.07.34Z"></path> </g> </g> </svg> 