<?xml version="1.0" encoding="UTF-8"?> <svg xmlns="http://www.w3.org/2000/svg" xmlns:xlink="http://www.w3.org/1999/xlink" id="Layer_2" data-name="Layer 2" viewBox="0 0 296 296"> <defs> <style> .cls-1 { fill: #fff; } .cls-2 { fill: url(#linear-gradient); } </style> <linearGradient id="linear-gradient" x1="71.64" y1="247.41" x2="242.68" y2="76.37" gradientUnits="userSpaceOnUse"> <stop offset="0" stop-color="#b79d4f"></stop> <stop offset=".29" stop-color="#c4a960"></stop> <stop offset=".51" stop-color="#dcc080"></stop> <stop offset=".67" stop-color="#caaf69"></stop> <stop offset="1" stop-color="#b79d4f"></stop> </linearGradient> </defs> <g id="Layer_1-2" data-name="Layer 1"> <g> <circle class="cls-1" cx="148" cy="148" r="148"></circle> <path class="cls-2" d="m209.52,98.06c8.55-5.28,19.28-13.16,19.28-27.24,0-11.11-9.04-20.16-20.15-20.16-4.84,0-9.37,1.68-12.94,4.68-3.57-2.99-8.11-4.68-12.95-4.68-11.11,0-20.14,9.04-20.14,20.16,0,14.08,10.73,21.95,19.28,27.24-12.74,2.41-24.34,8.07-33.9,16.1-12.92-10.85-29.56-17.4-47.71-17.4-40.97,0-74.29,33.33-74.29,74.29s33.32,74.28,74.29,74.28c18.15,0,34.79-6.55,47.71-17.4,12.92,10.85,29.56,17.4,47.71,17.4,40.97,0,74.29-33.32,74.29-74.28,0-36.25-26.09-66.49-60.48-72.99Zm-36.85-27.24c0-5.57,4.53-10.11,10.09-10.11,3.56,0,6.8,1.82,8.66,4.86.91,1.49,2.54,2.4,4.29,2.4s3.38-.91,4.29-2.41c1.86-3.04,5.09-4.86,8.65-4.86,5.57,0,10.1,4.53,10.1,10.11,0,9.24-7.44,14.45-17.18,20.31-2.2,1.32-4.19,2.52-5.86,3.73-1.68-1.22-3.66-2.4-5.86-3.73-9.73-5.86-17.18-11.07-17.18-20.31Zm-24.67,143.19c-10.27-11.39-16.53-26.46-16.53-42.96s6.26-31.58,16.53-42.97c10.27,11.39,16.53,26.46,16.53,42.97s-6.26,31.57-16.53,42.96Zm-111.95-42.96c0-35.43,28.82-64.24,64.24-64.24,15.3,0,29.37,5.39,40.42,14.36-11.98,13.2-19.29,30.7-19.29,49.89s7.31,36.69,19.29,49.88c-11.05,8.97-25.11,14.35-40.42,14.35-35.42,0-64.24-28.82-64.24-64.24Zm159.66,64.24c-15.3,0-29.37-5.39-40.42-14.35,11.98-13.19,19.29-30.7,19.29-49.88s-7.31-36.69-19.29-49.89c11.05-8.97,25.11-14.36,40.42-14.36,35.42,0,64.24,28.82,64.24,64.24s-28.82,64.24-64.24,64.24Z"></path> </g> </g> </svg> 