<?xml version="1.0" encoding="UTF-8"?> <svg xmlns="http://www.w3.org/2000/svg" xmlns:xlink="http://www.w3.org/1999/xlink" id="Layer_2" data-name="Layer 2" viewBox="0 0 296 296"> <defs> <style> .cls-1 { fill: #fff; } .cls-2 { fill: url(#linear-gradient); } </style> <linearGradient id="linear-gradient" x1="61.6" y1="249.05" x2="239.76" y2="70.89" gradientUnits="userSpaceOnUse"> <stop offset="0" stop-color="#b79d4f"></stop> <stop offset=".29" stop-color="#c4a960"></stop> <stop offset=".51" stop-color="#dcc080"></stop> <stop offset=".67" stop-color="#caaf69"></stop> <stop offset="1" stop-color="#b79d4f"></stop> </linearGradient> </defs> <g id="Layer_1-2" data-name="Layer 1"> <g> <circle class="cls-1" cx="148" cy="148" r="148"></circle> <path class="cls-2" d="m256.1,229.78c-.61-2.15-2.84-3.4-4.99-2.78l-15.62,4.43-16.06-56.56c18.28-7.3,28.48-27.44,22.99-46.78l-21.34-75.16c-.61-2.15-2.84-3.4-4.99-2.78-2.15.61-3.39,2.84-2.78,4.99l7.45,26.22c-2.23,3.52-9.31,12.95-20.04,10.38-18.15-4.38-33.52-.81-40.73,1.54l-6.04-21.29c-.61-2.15-2.84-3.4-4.99-2.78-2.15.61-3.39,2.84-2.78,4.99l.81,2.86c-.78.52-1.39,1.29-1.67,2.26l-3.96,13.96c-7.21-2.35-22.58-5.92-40.73-1.53-10.82,2.59-17.83-6.82-20.04-10.37l7.45-26.24c.61-2.15-.63-4.38-2.78-4.99-2.15-.63-4.38.63-4.99,2.78l-21.34,75.16c-5.49,19.34,4.71,39.48,22.99,46.78l-16.06,56.56-15.62-4.43c-2.15-.62-4.38.63-4.99,2.78-.61,2.15.63,4.38,2.78,4.99l19.48,5.53s.01,0,.02,0c.01,0,.02,0,.03,0l19.47,5.53c.37.11.74.15,1.11.15,1.76,0,3.38-1.16,3.88-2.93.61-2.15-.63-4.38-2.78-4.99l-15.62-4.44,16.06-56.58c2.23.39,4.46.61,6.67.61,16.97,0,32.61-11.2,37.47-28.3l16.84-59.31,16.84,59.31c4.86,17.11,20.5,28.3,37.47,28.3,2.21,0,4.44-.21,6.67-.61l16.06,56.58-15.62,4.43c-2.15.61-3.39,2.84-2.78,4.99.5,1.77,2.12,2.93,3.88,2.93.37,0,.74-.05,1.11-.15l19.5-5.54s0,0,0,0c0,0,0,0,0,0l19.5-5.53c2.15-.61,3.39-2.84,2.78-4.99Zm-130.02-82.63c-4.65,16.37-21.75,25.91-38.11,21.26-16.37-4.65-25.9-21.74-21.26-38.11l11.14-39.23c5.41,5.85,13.94,11.13,24.69,8.53,16.41-3.96,30.52-.53,36.62,1.48l-13.08,46.08Zm49.21,0l-13.08-46.08c6.11-2,20.21-5.43,36.62-1.48,10.73,2.59,19.27-2.69,24.68-8.53l11.14,39.24c4.65,16.37-4.89,33.46-21.26,38.11-16.34,4.64-33.46-4.89-38.11-21.26Zm4.46-42.32c0,2.51-2.03,4.54-4.54,4.54s-4.54-2.03-4.54-4.54,2.03-4.54,4.54-4.54,4.54,2.03,4.54,4.54Zm33.94,4.54c0,2.51-2.03,4.54-4.54,4.54s-4.54-2.03-4.54-4.54,2.03-4.54,4.54-4.54,4.54,2.03,4.54,4.54Zm-14.99,29.78c0,2.51-2.03,4.54-4.54,4.54s-4.54-2.03-4.54-4.54,2.03-4.54,4.54-4.54,4.54,2.03,4.54,4.54Zm-85.81-19.09c-2.51,0-4.54-2.03-4.54-4.54s2.03-4.54,4.54-4.54,4.54,2.03,4.54,4.54-2.03,4.54-4.54,4.54Zm6.59,15.66c0,2.51-2.03,4.54-4.54,4.54s-4.54-2.03-4.54-4.54,2.03-4.54,4.54-4.54,4.54,2.03,4.54,4.54Zm-22.23,13.62c0,2.51-2.03,4.54-4.54,4.54s-4.54-2.03-4.54-4.54,2.03-4.54,4.54-4.54,4.54,2.03,4.54,4.54Z"></path> </g> </g> </svg> 