<?xml version="1.0" encoding="UTF-8"?> <!-- Generator: Adobe Illustrator 27.7.0, SVG Export Plug-In . SVG Version: 6.00 Build 0) --> <svg xmlns="http://www.w3.org/2000/svg" xmlns:xlink="http://www.w3.org/1999/xlink" id="Layer_1" x="0px" y="0px" viewBox="0 0 100.2 100.2" style="enable-background:new 0 0 100.2 100.2;" xml:space="preserve"> <style type="text/css"> .st0{fill:url(#SVGID_1_);} </style> <linearGradient id="SVGID_1_" gradientUnits="userSpaceOnUse" x1="29.222" y1="90.523" x2="72.941" y2="14.7995"> <stop offset="0.3349" style="stop-color:#CAAF69"></stop> <stop offset="0.4944" style="stop-color:#DCC080"></stop> <stop offset="0.7131" style="stop-color:#C4A960"></stop> </linearGradient> <path class="st0" d="M98.1,48.9c-0.4-0.4-0.9-0.5-1.4-0.4c-0.8,0.2-4.3,0.9-8.3,2c-0.1-0.2-0.2-0.3-0.3-0.4L73.7,35.4 c-2-1.9-4.7-2.9-7.4-2.9c-2.9,0-5.7,1.2-7.8,3.3L52,42.4c-0.6,0.6-0.6,1.5,0,2.1l7,7.1v13.6c0,11.2,9,20.3,20.1,20.3 c0.8,0,1.5-0.7,1.5-1.5s-0.7-1.5-1.5-1.5c-9.4,0-17.1-7.8-17.1-17.3V51c0-0.4-0.2-0.8-0.4-1l-6.4-6.5l5.5-5.6 c1.5-1.5,3.5-2.4,5.6-2.4c2,0,3.9,0.8,5.3,2.1l13.7,13.8c-4.4,1.3-8.8,3-10.6,4.8c-2.1,2.1-3.2,4.9-3.1,7.9c0.1,3,1.3,5.8,3.4,8 c2.1,2.1,5,3.4,8,3.4c0.1,0,0.2,0,0.2,0c2.9,0,5.6-1.1,7.7-3.1c3.9-3.9,7.3-20.2,7.7-22.1C98.6,49.8,98.4,49.3,98.1,48.9z M88.7,70.2c-1.5,1.5-3.4,2.3-5.5,2.3c-0.1,0-0.1,0-0.2,0c-2.2,0-4.3-0.9-5.9-2.5s-2.5-3.7-2.5-5.9c0-2.2,0.8-4.2,2.3-5.7 C79,56.1,88.2,53.5,95,52C93.8,57.7,91.1,67.8,88.7,70.2z M63,41c1.1,0,2,0.9,2,2s-0.9,2-2,2s-2-0.9-2-2S61.9,41,63,41z M41.5,35.8 c-2.1-2.1-4.8-3.3-7.8-3.3c-2.7,0-5.4,1-7.5,3L11.9,50c-0.1,0.1-0.2,0.3-0.3,0.4c-4-1.1-7.5-1.8-8.3-2c-0.5-0.1-1,0.1-1.4,0.4 c-0.4,0.4-0.5,0.9-0.4,1.4c0.4,1.8,3.8,18.1,7.7,22.1c2.1,2.1,4.9,3.1,7.7,3.1c2.9,0,5.9-1.1,8.2-3.4c2.1-2.1,3.4-5,3.4-8 c0.1-3-1.1-5.8-3.1-7.9c-1.8-1.8-6.2-3.5-10.6-4.8l13.6-13.8c1.5-1.4,3.4-2.1,5.4-2.1c2.1,0,4.1,0.8,5.6,2.4l5.5,5.6L38.4,50 c-0.3,0.3-0.4,0.7-0.4,1v14.2c0,9.5-7.7,17.3-17.1,17.3c-0.8,0-1.5,0.7-1.5,1.5s0.7,1.5,1.5,1.5C32,85.5,41,76.4,41,65.2V51.6l7-7.1 c0.6-0.6,0.6-1.5,0-2.1L41.5,35.8z M25.5,64.1c0,2.2-0.9,4.3-2.5,5.9c-1.6,1.6-3.7,2.5-5.9,2.5c-2.2,0.1-4.2-0.8-5.7-2.3 C9.1,68,6.5,58.8,5,52c5.7,1.3,15.9,4,18.3,6.4C24.7,59.8,25.5,61.9,25.5,64.1z M37,41c1.1,0,2,0.9,2,2s-0.9,2-2,2s-2-0.9-2-2 S35.9,41,37,41z M62.4,19.9c1.4-1.4,2.1-3.3,2.1-5.4c0-4.4-3.6-8-8.1-8c0,0,0,0,0,0c-2.6,0-4.9,1.2-6.4,3.1 c-1.5-1.9-3.8-3.1-6.4-3.1c0,0,0,0,0,0c-2.2,0-4.2,0.8-5.8,2.4c-1.5,1.5-2.3,3.5-2.3,5.6c0,2.1,0.8,4,2.1,5.4 c2.7,2.8,11,10.8,11.4,11.2c0.3,0.3,0.7,0.4,1,0.4c0.4,0,0.8-0.1,1-0.4C51.4,30.7,59.6,22.8,62.4,19.9z M50,27.9 c-2.4-2.3-8.1-7.9-10.2-10.1c-0.8-0.9-1.3-2-1.3-3.3c0-1.3,0.5-2.6,1.5-3.5c1-1,2.3-1.5,3.6-1.5c0,0,0,0,0,0c2.3,0,4.3,1.5,4.9,3.7 c0.2,0.7,0.8,1.1,1.4,1.1c0,0,0,0,0,0c0.7,0,1.3-0.5,1.4-1.1C52,11,54,9.5,56.4,9.5c0,0,0,0,0,0c2.8,0,5.1,2.3,5.1,5 c0,1.3-0.5,2.5-1.3,3.3C58.1,20.1,52.4,25.6,50,27.9z"></path> </svg> 